<svg width="72" height="72" viewBox="0 0 72 72" fill="none" xmlns="http://www.w3.org/2000/svg">
<path d="M36 0C55.8823 0 72 16.1178 72 36C72 55.8823 55.8823 72 36 72C16.1178 72 0 55.8823 0 36C0 16.1178 16.1178 0 36 0ZM36 2.84211C17.6874 2.84211 2.84211 17.6874 2.84211 36C2.84211 54.3126 17.6874 69.1579 36 69.1579C54.3126 69.1579 69.1579 54.3126 69.1579 36C69.1579 17.6874 54.3126 2.84211 36 2.84211ZM36 5.68421C52.743 5.68421 66.3158 19.2571 66.3158 36C66.3158 52.743 52.743 66.3158 36 66.3158C19.2571 66.3158 5.68421 52.743 5.68421 36C5.68421 19.2571 19.2571 5.68421 36 5.68421Z" fill="white"/>
</svg>
